<svg width="9" height="14" viewBox="0 0 9 14" fill="none" xmlns="http://www.w3.org/2000/svg">
<path fill-rule="evenodd" clip-rule="evenodd" d="M8.29975 9.13034C8.42589 9.25421 8.49766 9.4231 8.49928 9.59988C8.50091 9.77666 8.43225 9.94685 8.30841 10.073L4.97508 13.4663C4.91304 13.5294 4.83905 13.5795 4.75745 13.6137C4.67584 13.648 4.58823 13.6656 4.49975 13.6656C4.41126 13.6656 4.32366 13.648 4.24205 13.6137C4.16044 13.5795 4.08646 13.5294 4.02441 13.4663L0.691081 10.073C0.570257 9.94633 0.504109 9.77721 0.506922 9.60217C0.509735 9.42713 0.581283 9.26023 0.706115 9.1375C0.830947 9.01477 0.999045 8.94606 1.1741 8.94622C1.34916 8.94638 1.51714 9.01539 1.64175 9.13834L3.83308 11.3697V0.999674C3.83308 0.822863 3.90332 0.653294 4.02834 0.52827C4.15337 0.403246 4.32294 0.333008 4.49975 0.333008C4.67656 0.333008 4.84613 0.403246 4.97115 0.52827C5.09618 0.653294 5.16641 0.822863 5.16641 0.999674V11.3697L7.35775 9.13834C7.4817 9.01229 7.65065 8.94064 7.82742 8.93914C8.0042 8.93764 8.17367 9.00642 8.29975 9.13034Z" fill="#ED1562"/>
</svg>
