<svg width="8" height="14" viewBox="0 0 8 14" fill="none" xmlns="http://www.w3.org/2000/svg">
<path fill-rule="evenodd" clip-rule="evenodd" d="M0.200252 4.86966C0.0741153 4.74579 0.00234175 4.5769 0.000716686 4.40012C-0.000908375 4.22334 0.0677481 4.05315 0.191586 3.92699L3.52492 0.533656C3.58696 0.470565 3.66095 0.420457 3.74256 0.386252C3.82416 0.352049 3.91177 0.334433 4.00025 0.334433C4.08874 0.334433 4.17634 0.352049 4.25795 0.386252C4.33956 0.420457 4.41354 0.470565 4.47559 0.533656L7.80892 3.92699C7.92974 4.05367 7.99589 4.22279 7.99308 4.39783C7.99026 4.57286 7.91872 4.73977 7.79388 4.8625C7.66905 4.98523 7.50096 5.05394 7.3259 5.05378C7.15084 5.05362 6.98286 4.98461 6.85825 4.86166L4.66692 2.63032L4.66692 13.0003C4.66692 13.1771 4.59668 13.3467 4.47166 13.4717C4.34663 13.5968 4.17706 13.667 4.00025 13.667C3.82344 13.667 3.65387 13.5968 3.52885 13.4717C3.40382 13.3467 3.33359 13.1771 3.33359 13.0003L3.33359 2.63032L1.14225 4.86166C1.0183 4.9877 0.849354 5.05936 0.672576 5.06086C0.495798 5.06236 0.326328 4.99358 0.200252 4.86966Z" fill="#37B781"/>
</svg>
