<svg width="190" height="79" viewBox="0 0 190 79" fill="none" xmlns="http://www.w3.org/2000/svg">
<path d="M15.2012 37.3973C17.3815 38.0169 19.1473 39.1086 20.4985 40.6724C21.8805 42.2066 22.5714 44.0655 22.5714 46.2489C22.5714 49.4354 21.4505 51.9286 19.2087 53.7284C16.9977 55.5282 14.2799 56.4281 11.0554 56.4281C8.53722 56.4281 6.28008 55.8823 4.28397 54.7906C2.31856 53.6694 0.890573 52.0319 0 49.878L5.43557 46.8685C6.23401 49.2584 8.10729 50.4533 11.0554 50.4533C12.683 50.4533 13.9421 50.0845 14.8327 49.3469C15.7539 48.5798 16.2146 47.5471 16.2146 46.2489C16.2146 44.9801 15.7539 43.9622 14.8327 43.1951C13.9421 42.4279 12.683 42.0444 11.0554 42.0444H9.67347L7.23207 38.5038L13.5889 30.5374H0.967347V24.8281H21.2356V29.8735L15.2012 37.3973Z" fill="white"/>
<path d="M101.571 79H78.7149L62.1479 54.984L55.5845 65.4571H32.7282L50.6431 38.71L31.5998 12.4143H54.4561L62.1479 22.278L77.6411 0H100.344L73.4994 38.552L101.571 79Z" fill="#AB1A64"/>
<path d="M123.818 41.0444C127.044 42.9812 128.657 45.9048 128.657 49.815C128.657 53.0674 127.553 55.7352 125.344 57.8182C123.135 59.9012 120.417 60.9427 117.192 60.9427H101.571V22.5713H116.087C119.243 22.5713 121.89 23.5945 124.029 25.641C126.203 27.6509 127.29 30.2273 127.29 33.3701C127.29 36.5495 126.133 39.1075 123.818 41.0444ZM116.087 29.6426H108.829V38.0843H116.087C117.209 38.0843 118.138 37.6823 118.875 36.8784C119.646 36.0744 120.032 35.0694 120.032 33.8635C120.032 32.6575 119.663 31.6525 118.927 30.8486C118.191 30.0446 117.244 29.6426 116.087 29.6426ZM117.192 53.8714C118.419 53.8714 119.436 53.4512 120.242 52.6106C121.048 51.7336 121.452 50.6372 121.452 49.3217C121.452 48.0426 121.048 46.9828 120.242 46.1423C119.436 45.2652 118.419 44.8267 117.192 44.8267H108.829V53.8714H117.192Z" fill="white"/>
<path d="M171.543 60.9427V22.5713H178.314V60.9427H171.543Z" fill="white"/>
<path d="M185.086 60.9427V22.5713H189.6V60.9427H185.086Z" fill="white"/>
<path d="M159.409 30.1807H167.029V60.1049H159.409V56.5738C157.125 59.4865 153.916 60.9428 149.782 60.9428C145.844 60.9428 142.457 59.4266 139.622 56.3943C136.827 53.3221 135.429 49.5716 135.429 45.1428C135.429 40.714 136.827 36.9834 139.622 33.9511C142.457 30.8789 145.844 29.3428 149.782 29.3428C153.916 29.3428 157.125 30.7991 159.409 33.7117V30.1807ZM145.352 51.2473C146.887 52.8034 148.837 53.5814 151.199 53.5814C153.562 53.5814 155.511 52.8034 157.047 51.2473C158.622 49.6514 159.409 47.6165 159.409 45.1428C159.409 42.669 158.622 40.6541 157.047 39.0981C155.511 37.5021 153.562 36.7041 151.199 36.7041C148.837 36.7041 146.887 37.5021 145.352 39.0981C143.816 40.6541 143.048 42.669 143.048 45.1428C143.048 47.6165 143.816 49.6514 145.352 51.2473Z" fill="white"/>
</svg>
