<svg width="35" height="35" viewBox="0 0 35 35" fill="none" xmlns="http://www.w3.org/2000/svg">
<circle cx="17.5" cy="17.5" r="17.5" fill="#2D3338"/>
<circle cx="17.5" cy="17.5" r="14.5" fill="#2B3237"/>
<path d="M9.3766 27H25.6234C25.8305 27 26 26.824 26 26.6C26 25.328 25.6159 24.132 24.9417 23.16C24.2714 22.192 23.311 21.44 22.1661 21.06L21.9778 21C20.9685 20.664 20.1814 19.848 19.8274 18.792C20.4036 18.244 20.9196 17.496 21.3338 16.604L21.4318 16.636C21.5108 16.66 21.7217 16.692 21.9251 16.484C22.3394 16.056 22.7951 14.348 22.6557 13.756C22.5842 13.464 22.3921 13.376 22.313 13.352L22.2377 13.328C22.2716 13 22.2904 12.676 22.2904 12.368C22.2904 9.10802 20.4112 7 17.5 7C14.5888 7 12.7096 9.10802 12.7096 12.368C12.7096 12.676 12.7284 13 12.7623 13.328L12.6907 13.352C12.6079 13.376 12.4158 13.464 12.348 13.756C12.2049 14.348 12.6644 16.056 13.0749 16.484C13.282 16.692 13.4891 16.66 13.5682 16.636L13.6661 16.604C14.0804 17.496 14.5964 18.244 15.1726 18.792C14.8223 19.848 14.0315 20.664 13.0259 21L12.8339 21.06C10.5403 21.824 9 24.052 9 26.6C9 26.824 9.16947 27 9.3766 27Z" fill="white"/>
<circle cx="28.6" cy="26.6" r="5.6" fill="white"/>
<path d="M30.5604 26.3204H28.8804V24.6404C28.8804 24.5661 28.8509 24.4949 28.7983 24.4424C28.7458 24.3899 28.6746 24.3604 28.6004 24.3604C28.5261 24.3604 28.4549 24.3899 28.4024 24.4424C28.3499 24.4949 28.3204 24.5661 28.3204 24.6404V26.3204H26.6404C26.5661 26.3204 26.4949 26.3499 26.4424 26.4024C26.3899 26.4549 26.3604 26.5261 26.3604 26.6004C26.3604 26.6746 26.3899 26.7458 26.4424 26.7983C26.4949 26.8509 26.5661 26.8804 26.6404 26.8804H28.3204V28.5604C28.3204 28.6346 28.3499 28.7058 28.4024 28.7583C28.4549 28.8109 28.5261 28.8404 28.6004 28.8404C28.6746 28.8404 28.7458 28.8109 28.7983 28.7583C28.8509 28.7058 28.8804 28.6346 28.8804 28.5604V26.8804H30.5604C30.6346 26.8804 30.7058 26.8509 30.7583 26.7983C30.8109 26.7458 30.8404 26.6746 30.8404 26.6004C30.8404 26.5261 30.8109 26.4549 30.7583 26.4024C30.7058 26.3499 30.6346 26.3204 30.5604 26.3204Z" fill="#2B3237"/>
</svg>
