<svg width="35" height="35" viewBox="0 0 35 35" fill="none" xmlns="http://www.w3.org/2000/svg">
<circle cx="17.5" cy="17.5" r="17.5" fill="#101419"/>
<circle cx="17.5" cy="17.5" r="14.5" fill="#101419"/>
<path d="M9.3766 27H25.6234C25.8305 27 26 26.824 26 26.6C26 25.328 25.6159 24.132 24.9417 23.16C24.2714 22.192 23.311 21.44 22.1661 21.06L21.9779 21C20.9685 20.664 20.1814 19.848 19.8274 18.792C20.4036 18.244 20.9196 17.496 21.3339 16.604L21.4318 16.636C21.5108 16.66 21.7217 16.692 21.9251 16.484C22.3394 16.056 22.7951 14.348 22.6557 13.756C22.5842 13.464 22.3921 13.376 22.313 13.352L22.2377 13.328C22.2716 13 22.2904 12.676 22.2904 12.368C22.2904 9.10802 20.4112 7 17.5 7C14.5888 7 12.7096 9.10802 12.7096 12.368C12.7096 12.676 12.7284 13 12.7623 13.328L12.6907 13.352C12.6079 13.376 12.4158 13.464 12.348 13.756C12.2049 14.348 12.6644 16.056 13.0749 16.484C13.282 16.692 13.4891 16.66 13.5682 16.636L13.6661 16.604C14.0804 17.496 14.5964 18.244 15.1726 18.792C14.8223 19.848 14.0315 20.664 13.0259 21L12.8339 21.06C10.5403 21.824 9 24.052 9 26.6C9 26.824 9.16947 27 9.3766 27Z" fill="white"/>
<circle cx="29.0004" cy="27.0004" r="5.6" fill="white"/>
<path d="M30.9607 26.7207H29.2807V25.0407C29.2807 24.9665 29.2512 24.8953 29.1987 24.8428C29.1462 24.7902 29.075 24.7607 29.0007 24.7607C28.9265 24.7607 28.8553 24.7902 28.8028 24.8428C28.7502 24.8953 28.7207 24.9665 28.7207 25.0407V26.7207H27.0407C26.9665 26.7207 26.8953 26.7502 26.8428 26.8028C26.7902 26.8553 26.7607 26.9265 26.7607 27.0007C26.7607 27.075 26.7902 27.1462 26.8428 27.1987C26.8953 27.2512 26.9665 27.2807 27.0407 27.2807H28.7207V28.9607C28.7207 29.035 28.7502 29.1062 28.8028 29.1587C28.8553 29.2112 28.9265 29.2407 29.0007 29.2407C29.075 29.2407 29.1462 29.2112 29.1987 29.1587C29.2512 29.1062 29.2807 29.035 29.2807 28.9607V27.2807H30.9607C31.035 27.2807 31.1062 27.2512 31.1587 27.1987C31.2112 27.1462 31.2407 27.075 31.2407 27.0007C31.2407 26.9265 31.2112 26.8553 31.1587 26.8028C31.1062 26.7502 31.035 26.7207 30.9607 26.7207Z" fill="#101419"/>
</svg>
