<svg width="84" height="35" viewBox="0 0 84 35" fill="none" xmlns="http://www.w3.org/2000/svg">
<path d="M6.73469 16.5686C7.70068 16.8431 8.48299 17.3268 9.08163 18.0196C9.69388 18.6993 10 19.5229 10 20.4902C10 21.902 9.5034 23.0065 8.5102 23.8039C7.53061 24.6013 6.32653 25 4.89796 25C3.78231 25 2.78231 24.7582 1.89796 24.2745C1.02721 23.7778 0.394558 23.0523 0 22.098L2.40816 20.7647C2.7619 21.8235 3.59184 22.3529 4.89796 22.3529C5.61905 22.3529 6.17687 22.1895 6.57143 21.8627C6.97959 21.5229 7.18367 21.0654 7.18367 20.4902C7.18367 19.9281 6.97959 19.4771 6.57143 19.1373C6.17687 18.7974 5.61905 18.6275 4.89796 18.6275H4.28571L3.20408 17.0588L6.02041 13.5294H0.428571V11H9.40816V13.2353L6.73469 16.5686Z" fill="white"/>
<path d="M45.0001 35H34.8739L27.5341 24.36L24.6262 29H14.5L22.437 17.15L14.0001 5.5H24.1263L27.5341 9.87L34.3981 0H44.4564L32.5632 17.08L45.0001 35Z" fill="#AB1A64"/>
<path d="M54.8563 18.1843C56.2854 19.0424 57 20.3376 57 22.07C57 23.511 56.5107 24.6929 55.532 25.6157C54.5534 26.5386 53.3495 27 51.9204 27H45V10H51.4311C52.8291 10 54.0019 10.4533 54.9495 11.36C55.9126 12.2505 56.3942 13.3919 56.3942 14.7843C56.3942 16.1929 55.8816 17.3262 54.8563 18.1843ZM51.4311 13.1329H48.2155V16.8729H51.4311C51.9282 16.8729 52.3398 16.6948 52.666 16.3386C53.0078 15.9824 53.1786 15.5371 53.1786 15.0029C53.1786 14.4686 53.0155 14.0233 52.6893 13.6671C52.3631 13.311 51.9437 13.1329 51.4311 13.1329ZM51.9204 23.8671C52.4641 23.8671 52.9146 23.681 53.2718 23.3086C53.6291 22.92 53.8078 22.4343 53.8078 21.8514C53.8078 21.2848 53.6291 20.8152 53.2718 20.4429C52.9146 20.0543 52.4641 19.86 51.9204 19.86H48.2155V23.8671H51.9204Z" fill="white"/>
<path d="M76 27V10H79V27H76Z" fill="white"/>
<path d="M82 27V10H84V27H82Z" fill="white"/>
<path d="M70.6243 13.3712H74V26.6288H70.6243V25.0644C69.6125 26.3548 68.1907 27 66.3589 27C64.6143 27 63.114 26.3283 61.8579 24.9848C60.6193 23.6237 60 21.9621 60 20C60 18.0379 60.6193 16.3851 61.8579 15.0417C63.114 13.6806 64.6143 13 66.3589 13C68.1907 13 69.6125 13.6452 70.6243 14.9356V13.3712ZM64.3963 22.7045C65.0766 23.3939 65.9402 23.7386 66.9869 23.7386C68.0336 23.7386 68.8972 23.3939 69.5776 22.7045C70.2754 21.9975 70.6243 21.096 70.6243 20C70.6243 18.904 70.2754 18.0114 69.5776 17.322C68.8972 16.6149 68.0336 16.2614 66.9869 16.2614C65.9402 16.2614 65.0766 16.6149 64.3963 17.322C63.7159 18.0114 63.3757 18.904 63.3757 20C63.3757 21.096 63.7159 21.9975 64.3963 22.7045Z" fill="white"/>
</svg>
