<svg width="57" height="55" viewBox="0 0 57 55" fill="none" xmlns="http://www.w3.org/2000/svg">
<rect width="57" height="55" rx="27.5" fill="white" fill-opacity="0.3"/>
<path d="M28.5 50C25.425 50 22.5187 49.4094 19.7812 48.2281C17.0437 47.0469 14.6531 45.4344 12.6094 43.3906C10.5656 41.3469 8.95312 38.9562 7.77187 36.2188C6.59062 33.4812 6 30.575 6 27.5C6 24.3875 6.59062 21.4719 7.77187 18.7531C8.95312 16.0344 10.5656 13.6531 12.6094 11.6094C14.6531 9.56562 17.0437 7.95312 19.7812 6.77187C22.5187 5.59062 25.425 5 28.5 5C31.6125 5 34.5281 5.59062 37.2469 6.77187C39.9656 7.95312 42.3469 9.56562 44.3906 11.6094C46.4344 13.6531 48.0469 16.0344 49.2281 18.7531C50.4094 21.4719 51 24.3875 51 27.5C51 30.575 50.4094 33.4812 49.2281 36.2188C48.0469 38.9562 46.4344 41.3469 44.3906 43.3906C42.3469 45.4344 39.9656 47.0469 37.2469 48.2281C34.5281 49.4094 31.6125 50 28.5 50ZM40.0312 22.2687L43.9125 20.9187L44.925 17.3187C43.65 15.3313 42.075 13.6344 40.2 12.2281C38.325 10.8219 36.2062 9.74375 33.8438 8.99375L30.1875 11.4125V15.35L40.0312 22.2687ZM17.025 22.2687L26.8125 15.35V11.4125L23.2125 8.99375C20.85 9.74375 18.7312 10.8219 16.8562 12.2281C14.9812 13.6344 13.4062 15.3313 12.1312 17.3187L13.3687 20.9187L17.025 22.2687ZM13.9875 40.2687L17.3625 39.875L19.5562 36.2188L16.0687 25.475L12.075 24.125L9.375 26.3188C9.375 29.0187 9.675 31.4844 10.275 33.7156C10.875 35.9469 12.1125 38.1312 13.9875 40.2687ZM28.5 46.625C29.5125 46.625 30.5344 46.5312 31.5656 46.3438C32.5969 46.1562 33.675 45.9125 34.8 45.6125L36.6562 41.5625L34.8562 38.4688H22.2L20.4 41.5625L22.2563 45.6125C23.2312 45.9125 24.2625 46.1562 25.35 46.3438C26.4375 46.5312 27.4875 46.625 28.5 46.625ZM22.5375 35.0938H34.2375L37.6687 24.8L28.5 18.2188L19.1625 24.8L22.5375 35.0938ZM43.0687 40.2687C44.9062 38.1312 46.125 35.9469 46.725 33.7156C47.325 31.4844 47.625 29.0187 47.625 26.3188L44.925 24.4625L40.9875 25.475L37.5 36.2188L39.6375 39.875L43.0687 40.2687Z" fill="white"/>
</svg>
