<svg width="343" height="300" viewBox="0 0 343 300" fill="none" xmlns="http://www.w3.org/2000/svg">
<path d="M0 20C0 8.9543 8.9543 0 20 0H323C334.046 0 343 8.95431 343 20V280C343 291.046 334.046 300 323 300H20C8.9543 300 0 291.046 0 280V20Z" fill="#4D670D"/>
<mask id="mask0_210_4897" style="mask-type:alpha" maskUnits="userSpaceOnUse" x="0" y="0" width="343" height="300">
<path d="M0 20C0 8.9543 8.9543 0 20 0H323C334.046 0 343 8.95431 343 20V280C343 291.046 334.046 300 323 300H20C8.9543 300 0 291.046 0 280V20Z" fill="#4D670D"/>
</mask>
<g mask="url(#mask0_210_4897)">
<rect x="13" width="28" height="300" fill="#3E5700" fill-opacity="0.2"/>
<rect x="59" width="28" height="300" fill="#3E5700" fill-opacity="0.2"/>
<rect x="105" width="28" height="300" fill="#3E5700" fill-opacity="0.2"/>
<rect x="151" width="28" height="300" fill="#3E5700" fill-opacity="0.2"/>
<rect x="197" width="28" height="300" fill="#3E5700" fill-opacity="0.2"/>
<rect x="243" width="28" height="300" fill="#3E5700" fill-opacity="0.2"/>
<rect x="289" width="28" height="300" fill="#3E5700" fill-opacity="0.2"/>
</g>
<line x1="172.5" x2="172.5" y2="162" stroke="white" stroke-dasharray="2 2"/>
<line x1="172.5" y1="138" x2="172.5" y2="300" stroke="white" stroke-dasharray="2 2"/>
<g opacity="0.3">
<g opacity="0.4">
<mask id="path-12-inside-1_210_4897" fill="white">
<path d="M60.5 127C62.5355 127 64.551 127.582 66.4316 128.713C68.3121 129.843 70.0208 131.501 71.4602 133.59C72.8995 135.679 74.0412 138.16 74.8201 140.89C75.5991 143.619 76 146.545 76 149.5C76 152.455 75.5991 155.381 74.8201 158.11C74.0412 160.84 72.8995 163.321 71.4602 165.41C70.0208 167.499 68.3121 169.157 66.4316 170.287C64.551 171.418 62.5355 172 60.5 172L60.5 149.5L60.5 127Z"/>
</mask>
<path d="M60.5 127C62.5355 127 64.551 127.582 66.4316 128.713C68.3121 129.843 70.0208 131.501 71.4602 133.59C72.8995 135.679 74.0412 138.16 74.8201 140.89C75.5991 143.619 76 146.545 76 149.5C76 152.455 75.5991 155.381 74.8201 158.11C74.0412 160.84 72.8995 163.321 71.4602 165.41C70.0208 167.499 68.3121 169.157 66.4316 170.287C64.551 171.418 62.5355 172 60.5 172L60.5 149.5L60.5 127Z" stroke="white" stroke-width="2" mask="url(#path-12-inside-1_210_4897)"/>
</g>
<path opacity="0.4" d="M10 102H58C59.6569 102 61 103.343 61 105V194C61 195.657 59.6569 197 58 197H10" stroke="white"/>
<path opacity="0.4" d="M10 121H36C37.6569 121 39 122.343 39 124V172C39 173.657 37.6569 175 36 175H10" stroke="white"/>
</g>
<rect opacity="0.4" x="10.5" y="8.5" width="322" height="283" rx="9.5" stroke="white"/>
</svg>
